<svg width="20" height="24" viewBox="0 0 20 24" fill="none" xmlns="http://www.w3.org/2000/svg">
<path d="M12.1295 0.448473C8.04143 0.878525 4.55439 3.88371 3.52848 7.86816C2.25387 12.8112 4.87045 17.9044 9.63211 19.7438C10.6166 20.122 11.9793 20.3915 12.9326 20.3915C13.3005 20.3915 13.3834 20.3759 13.4715 20.2879C13.6269 20.1324 13.6269 19.8578 13.4715 19.6972C13.3938 19.6195 13.259 19.5884 12.8135 19.5521C10.9689 19.407 9.36786 18.8889 8.05698 18.0184C7.44558 17.6143 7.26423 17.4692 6.72019 16.9303C5.00516 15.2464 4.08806 12.9666 4.08806 10.3863C4.08806 7.21531 5.51812 4.46402 8.03107 2.78526C9.32123 1.93034 11.0466 1.37075 12.8238 1.2464C13.2953 1.21013 13.3523 1.19459 13.4818 1.05987C13.6684 0.878525 13.6632 0.733448 13.4767 0.541737C13.3316 0.40184 13.3005 0.391478 12.943 0.39666C12.7357 0.40184 12.3679 0.427748 12.1295 0.448473Z" fill="#FAFAFA"/>
<path d="M12.2021 3.68637C10.6787 3.91953 9.3834 4.56202 8.36786 5.5931C7.42485 6.54647 6.86527 7.58274 6.56993 8.9558C6.47667 9.38585 6.45594 9.65528 6.45594 10.391C6.45076 11.3599 6.50776 11.7589 6.76682 12.5827C7.25905 14.1268 8.3005 15.4325 9.6891 16.246C10.6217 16.79 11.9534 17.1631 13.0466 17.1838C13.4508 17.1941 13.5958 17.0853 13.5958 16.7848C13.5958 16.5154 13.4508 16.4169 13.0155 16.3807C11.9223 16.2874 11.1088 16.0594 10.3057 15.6242C8.27978 14.5102 7.02589 12.189 7.25387 9.97134C7.48703 7.68119 8.59584 6.00761 10.4922 5.07497C12.3782 4.14751 14.6684 4.26668 16.4663 5.37549C16.9844 5.69673 17.7513 6.4273 18.0777 6.91435C18.6321 7.733 19.0155 8.81072 19.1243 9.84699C19.1969 10.5361 19.2072 10.5827 19.3264 10.7019C19.4715 10.847 19.715 10.8366 19.8705 10.676C19.9844 10.5672 20 10.505 20 10.1993C20 9.4843 19.7461 8.35994 19.4249 7.65528C18.6166 5.86772 17.171 4.55684 15.3316 3.94544C14.3471 3.61383 13.2487 3.52575 12.2021 3.68637Z" fill="#FAFAFA"/>
<path d="M12.7254 6.821C11.9171 6.92981 11.2746 7.25105 10.6425 7.88317C10.2902 8.23032 10.1814 8.38058 9.98446 8.78991C9.51814 9.75882 9.47151 10.6604 9.83939 11.707C10.114 12.4946 10.7254 13.1837 11.4871 13.5671C12.1451 13.8935 12.5959 13.9868 13.3886 13.9505C13.9067 13.9298 14.0881 13.8987 14.4404 13.7744C15.0415 13.5567 15.399 13.3236 15.8238 12.8728C17.0466 11.5775 17.1192 9.49457 15.9896 8.11633C15.2073 7.16297 13.943 6.66038 12.7254 6.821ZM13.8808 7.72255C15.4249 8.09043 16.3368 9.74328 15.829 11.2562C15.2798 12.8884 13.5026 13.6293 11.9586 12.878C10.285 12.0645 9.90156 9.764 11.2176 8.44794C11.8912 7.76918 12.9067 7.49457 13.8808 7.72255Z" fill="#FAFAFA"/>
<path d="M0.233161 10.0396C0.0362694 10.1432 0 10.2468 0 10.6769C0 12.3556 0.518135 14.4903 1.32124 16.1328C2.02591 17.5732 2.75648 18.5992 3.88083 19.7183C6.25907 22.0862 9.27979 23.4282 12.601 23.5836C13.285 23.6199 13.2953 23.6199 13.4404 23.4903C13.6425 23.3142 13.6477 23.0655 13.4508 22.8945C13.3368 22.796 13.2487 22.7753 12.9896 22.7753C10.4352 22.7753 7.50777 21.7028 5.41451 20.0033C2.67358 17.7753 1.00518 14.4852 0.84456 10.9878C0.813472 10.2883 0.80829 10.2572 0.668394 10.1225C0.518135 9.96703 0.398964 9.94631 0.233161 10.0396Z" fill="#FAFAFA"/>
</svg>